<?xml version="1.0" encoding="utf-8" ?>
<svg xmlns="http://www.w3.org/2000/svg" xmlns:xlink="http://www.w3.org/1999/xlink" width="1024" height="1024">
	<path transform="scale(1.6 1.6)" d="M326.586 570.725C323.7 572.813 320.513 573.245 317.031 572.704C311.167 571.793 308.531 560.937 306.306 556.571C290.255 525.08 270.054 517.522 238.721 505.992C201.418 492.265 167.295 471.729 143.636 439.06C115.655 400.421 101.862 349.825 101.716 302.63C101.658 283.654 103.456 268.027 107.563 249.361C126.351 163.97 188.175 106.584 275 92.7098L312.37 89.128L312.969 89.1158C320.935 88.8174 328.784 89.2921 336.719 89.7674L346.363 90.1956C444.805 98.7201 515.365 159.302 534.498 256.719C536.335 266.07 538.127 276.096 538.575 285.625L538.694 302.212C538.65 358.547 520.288 417.645 479.947 458.264C457.637 480.728 429.701 496.399 400.156 507.183C368.347 518.793 351.418 524.832 334.69 556.235C332.113 561.071 330.312 566.644 326.586 570.725ZM313.339 103.537C216.119 104.964 140.623 159.516 120.821 257.447L117.89 275.039C116.595 284.702 116.264 293.973 116.284 303.732C116.375 347.804 129.601 394.235 155.456 430.185C177.566 460.928 209.347 479.673 244.553 492.576L264.397 499.749C291.807 511.017 306.155 527.108 320.872 552.567L323.113 547.736C345.966 504.266 370.358 505.125 409.948 487.804C476.87 458.524 511.876 404.708 522.213 332.715C524.418 317.356 525.066 298.115 523.622 282.474L522.314 273.184C509.79 173.409 437.079 110.056 337.918 103.747C329.779 103.229 321.494 103.513 313.339 103.537Z"/>
	<path transform="scale(1.6 1.6)" d="M332.11 472.196C321.054 472.195 310.033 472.473 299 471.58C222.616 465.391 163.413 415.125 149.404 337.882C148.186 331.17 147.314 324.526 147.171 317.7L147.121 303.188C147.373 290.185 149.355 277.259 152.242 264.562C169.479 188.74 233.137 137.147 309.577 132.655L331.192 132.575C410.423 136.789 468.486 184.178 487.495 259.916L491.586 280.137C493.815 294.099 494.588 307.952 493.434 322.089C486.193 410.805 420.093 468.499 332.11 472.196ZM312.314 147.251C250.528 149.805 194.931 186.934 173.012 245.888C170.307 253.165 168.417 260.704 166.637 268.249C150.141 338.174 177.01 412.606 245.303 443.205C272.081 455.202 300.624 457.848 329.517 457.773C349.529 456.844 370.573 453.514 389.273 446.183C440.407 426.136 472.946 377.125 478.613 323.243C483.478 276.991 465.409 219.211 430.943 188.072C404.496 164.178 371.808 150.004 336.035 147.442C328.208 146.882 320.167 147.204 312.314 147.251Z"/>
	<path transform="scale(1.6 1.6)" d="M328.048 333.003C300.088 339.278 285.298 316.507 272.912 296.712C265.618 285.054 255.653 271.315 267.571 259.129C264.712 248.306 262.747 237.656 264.929 226.406C269.222 204.275 289.657 188.634 311.501 186.378C331.036 185.434 357.634 196.171 368.322 212.359C383.145 234.81 371.284 258.896 371.791 260.378C371.879 260.636 373.593 261.912 373.906 262.217C382.814 270.88 373.375 286.19 368.309 294.146L363.108 302.924C354.833 316.694 344.292 328.943 328.048 333.003ZM313.335 201.068C297.125 202.433 285.593 211.793 280.047 226.572C287.043 220.277 294.185 216.751 303.44 215.091C319.218 213.632 330.778 216.458 346.79 211.571C336.459 206.094 325.41 200.371 313.335 201.068ZM356.399 223.906C348.932 225.06 341.968 229.169 334.52 229.98C329.567 230.52 324.75 229.288 319.844 228.841C303.876 227.387 289.063 234.284 281.821 248.906L281.621 249.291C279.083 254.693 285.747 264.121 278.015 273.742C281.667 283.99 289.737 298.024 296.674 306.359C301.618 312.057 308.897 318.416 316.842 318.983C336.458 320.381 346.664 302.027 355.413 287.544C365.967 270.075 359.753 279.183 357.802 266.094C356.249 255.681 363.361 230.63 356.757 223.948L356.399 223.906Z"/>
	<path transform="scale(1.6 1.6)" d="M358.968 359.156L354.503 367.182C349.518 374.719 339.733 384.628 330.555 386.291C326.571 387.012 322.894 386.815 319.531 384.616L318.594 385.87C315.291 386.636 311.314 387.069 308.009 386.144L307.5 385.991C293.971 382.014 283.863 366.007 279.797 353.399C276.878 344.348 279.79 335.876 270.624 348.045C265.88 354.343 258.859 357.854 252.297 361.943C243.832 367.217 235.732 373.318 229.089 380.805C225.307 385.068 221.652 392.887 214.653 390.71C193.374 384.091 241.468 351.622 246.161 348.41C249.565 346.08 253.383 344.02 256.523 341.35C262.226 336.5 262.547 329.764 271.509 327.577C281.154 327.127 287.351 332.336 295.468 336.776C310.166 344.817 328.171 346.008 343.286 338.238C350.59 334.483 356.326 327.618 365.141 327.678C376.633 327.757 376.534 335.444 383.707 341.268C390.819 347.043 443.372 379.122 430.469 390.048C423.648 395.823 419.236 388.953 414.905 384.219C399.417 367.29 380.44 361.851 365.65 342.067C363.53 344.625 360.817 355.073 358.968 359.156ZM345.981 352.656C339.891 355.171 333.922 356.638 327.442 357.72L327.567 371.818C336.3 369.102 341.552 360.279 346.156 353.091L345.981 352.656ZM295.092 352.597C298.96 361.08 303.451 369.006 312.627 372.459L312.914 357.965L295.092 352.597Z"/>
</svg>
