<?xml version="1.0" encoding="utf-8" ?>
<svg xmlns="http://www.w3.org/2000/svg" xmlns:xlink="http://www.w3.org/1999/xlink" width="1024" height="1024">
	<path transform="scale(1.6 1.6)" d="M274.006 172.941C322.184 169.715 326.076 242.222 279.453 245.31C276.077 245.343 272.309 245.605 269.019 244.794C230.033 235.179 231.363 178.698 274.006 172.941ZM272.725 188.542C245.541 196.158 253.467 233.507 280.368 230.08C306.882 224.779 301.22 184.885 272.725 188.542Z"/>
	<path transform="scale(1.6 1.6)" d="M274.903 88.5903L279.475 88.8069C301.5 91.3462 331.536 136.204 343.886 152.364L419.388 251.744L474.138 141.611C477.811 134.289 481.166 126.683 485.96 120C515.96 78.1702 577.741 109.903 564.92 156.765C563.093 163.444 559.742 169.779 556.694 175.964L448.281 395.374C442.211 407.438 441.148 413.331 430.156 421.667L430.04 453.75C430.144 459.365 429.231 457.883 434.349 459.185L444.115 461.753C455.524 465.102 489.887 477.235 487.706 492.389L487.187 495.156C480.383 517.691 447.124 510.961 430.938 508.754L407.883 506.418C397.684 505.586 386.083 505.664 375.469 505.181L167.259 505.145C164.054 505.208 160.917 505.879 157.728 505.947C148.489 506.145 139.598 506.062 130.409 506.987L109.375 509.046C93.7871 510.968 65.2881 516.48 58.9856 495.869C55.8098 485.483 62.112 480.27 70.2774 475.207C81.1623 468.457 93.3112 463.827 105.625 460.44L119.161 457.243C119.432 454.445 119.226 451.43 119.229 448.608L119.206 307.327C119.707 297.339 131.928 296.366 133.859 304.453L133.946 304.844C134.806 308.637 134.397 313.055 134.359 316.953L134.397 454.373L210.846 451.003C211.29 446.4 210.958 441.498 210.957 436.867L210.944 406.006C210.942 398.805 210.508 391.253 211.15 384.093C214.804 343.359 256.333 316.82 294.609 329.17C318.459 336.865 335.41 358.398 337.458 383.428C338.111 391.41 337.627 399.783 337.629 407.812L337.763 450.867L373.478 451.219C371.93 450.856 370.785 450.534 369.512 449.51L368.294 448.537C359.572 441.58 359.221 432.048 359.632 421.995L359.642 407.004C358.755 386.783 353.787 386.441 362.789 366.562L407.275 275.998C408.856 272.876 410.679 269.872 411.833 266.56L333.906 164.413C323.252 150.337 296.136 111.121 279.668 104.434L279.219 104.255C268.824 100.031 251.42 123.277 246.2 129.844L153.413 251.896C142.959 264.455 116.259 293.126 99.5312 297.5L98.9518 297.665C94.3075 298.835 89.815 294.55 89.3129 290.168C88.6538 284.416 95.1743 282.785 99.0737 280.796C116.948 271.678 133.112 252.701 145.44 237.314L238.116 115.648L250.065 102.526C257.312 95.2908 264.357 89.5108 274.903 88.5903ZM271.178 341.457C249.353 342.581 230.595 358.996 226.715 380.625C225.201 389.06 225.932 398.36 225.932 406.925L225.938 450.024L276.96 450.017L322.481 450.072L322.469 409.067C322.463 398.946 323.437 387.853 321.045 377.977C315.956 356.966 297.73 341.093 275.646 341.257L271.178 341.457ZM239.179 465.378L172.275 466.278C169.26 466.391 166.303 466.937 163.297 467.094L148.57 467.878C128.064 469.792 89.1598 476.927 73.3323 491.969C74.8445 493.559 75.8713 494.561 77.9688 495.313L78.467 495.505C84.5747 497.691 101.603 494.883 108.105 494.169L129.469 492.121C130.853 492 132.2 491.61 133.591 491.491L157.244 490.247L307.289 490.138L381.406 490.31L404.512 491.377L444.993 495.299C453.235 496.154 466.243 498.998 472.431 491.987C458.282 478.253 422.857 471.71 404.417 469.103C397.186 468.08 389.576 467.51 382.275 467.409L365.614 467.077C362.601 466.92 359.663 466.345 356.63 466.251L303.21 465.416L239.179 465.378ZM480.081 164.219C478.405 166.558 477.206 169.223 475.905 171.789L379.462 367.255L374.86 378.227C382.229 378.447 388.602 378.704 395.781 380.524L396.757 380.781C398.052 379.12 398.928 376.844 399.875 374.958L500.487 171.725C497.354 170.208 483.3 163.218 480.081 164.219ZM515.018 177.969C513.321 180.647 512.139 183.676 510.781 186.543L410.744 387.94L428.594 399.07C429.344 398.756 429.047 399.005 429.487 398.326L534.85 186.239C532.367 185.031 516.694 177.807 515.018 177.969ZM519.324 115.755C501.211 118.5 493.472 134.897 487.06 150.063C500.878 154.112 513.535 160.296 526.618 166.164L541.256 172.469C547.124 162.73 553.651 149.876 550.868 138.424C548.405 128.289 540.101 119.122 529.844 116.552L529.227 116.394C526.065 115.596 522.562 115.386 519.324 115.755ZM372.972 393.545C373.756 400.765 374.841 408.044 375.063 415.299L375.162 427.494C375.175 431.444 374.338 434.905 378.281 437.103L378.805 437.403C385.879 441.365 389.59 437.279 395.03 432.921L404.629 425.363L419.285 413.152C405.672 402.139 391.121 392.523 372.972 393.545ZM414.743 436.468L394.306 452.247L397.581 452.862L414.944 455.264L414.743 436.468Z"/>
</svg>
