<?xml version="1.0" encoding="utf-8" ?>
<svg xmlns="http://www.w3.org/2000/svg" xmlns:xlink="http://www.w3.org/1999/xlink" width="1024" height="1024">
	<path transform="scale(1.6 1.6)" d="M311.468 557.007C300.33 561.624 301.277 548.158 301.266 542.142L301.201 461.94C300.481 463.997 299.068 465.869 298.104 467.881L266.295 531.204C262.802 538.554 259.88 546.41 256.093 553.584C251.768 561.776 240.677 557.42 243.911 547.256C245.042 543.701 246.789 540.19 248.293 536.773L278.437 474.952C286.973 458.186 296.15 441.103 302.181 423.26C293.511 422.311 284.203 422.93 275.46 422.929L212.525 424.917C178.895 427.623 138.382 423.963 137.467 380.909C112.864 373.423 113.365 332.788 115.035 312.681L121.628 259.219C122.672 250.462 122.683 243.251 122.693 234.374L123.441 183.438C127.212 116.269 167.194 120.135 222.573 131.593L264.736 137.894C270.95 138.499 276.76 138.738 283.036 138.76L306.049 138.828L306.087 97.2557C306.117 91.4295 305.405 86.193 311.566 83.4643L311.861 83.447C319.012 83.1999 320.116 87.6774 320.061 93.8445L320.02 138.438C361.992 136.378 402.629 121.873 444.936 124.606C487.828 127.378 497.16 147.391 501.765 187.639L504.16 218.153C504.283 219.825 504.651 221.459 504.757 223.125L507.825 279.688C509.492 310.146 511.812 356.69 486.159 377.598C484.832 378.68 484.725 378.538 484.554 380.295L484.099 386.058C481.141 421.548 452.668 422.904 423.164 422.931L315.254 422.911C317.104 434.816 319.344 439.589 324.274 450.67L340.83 484.253L372.365 538.717C374.057 541.541 376.026 544.354 377.479 547.295C381.092 554.609 372.557 562.196 367.204 556.109C363.976 552.438 361.491 547.346 358.876 543.186L322.226 478.538C320.791 475.689 315.788 467.475 315.152 465.453L314.973 551.045C314.782 553.982 313.587 555.142 311.468 557.007ZM430.185 137.886C416.96 135.877 367.984 146.679 351.822 148.895L326.875 151.595C317.417 152.525 308.314 152.589 298.786 152.598L273.047 152.413C258.937 151.806 240.624 149.491 227.029 146.77C206.581 142.677 184.743 135.5 163.847 140.165C147.636 143.783 141.836 152.483 138.975 168.813C136.793 181.27 136.567 194.102 136.554 206.72L136.538 234.398C136.529 249.916 135.747 263.106 133.622 278.456C130.665 299.814 122.656 344.291 134.929 361.904C140.314 369.631 151.989 369.252 160.783 368.488C171.725 331.928 208.01 274.827 240.828 257.043L241.331 256.775C263.072 246.109 275.858 257.638 290.48 273.406L309.512 294.089L331.823 315.111C334.819 310.001 338.307 305.115 341.675 300.24C361.203 271.975 390.324 236.433 422.065 275.297C430.489 285.612 437.054 297.741 443.412 309.404L470.725 365.097C471.237 366.287 471.301 368.523 472.804 368.156C495.162 362.694 495.968 308.319 494.682 287.14L493.969 280.625C493.596 274.646 493.755 268.727 492.887 262.776C492.011 256.773 492.884 250.569 491.966 244.544C490.829 237.077 490.916 226.539 490.365 218.281L487.13 184.219C482.065 145.602 469.675 136.486 430.185 137.886ZM255.253 266.638C226.017 273.095 184.895 337.683 175.965 367.241C180.503 367.073 184.931 366.259 189.439 366.117L349.156 366.081C354.094 366.158 358.908 367.301 363.833 367.417L421.929 367.568C424.836 367.585 427.737 368.197 430.664 368.267L456.625 367.868C455.744 366.461 455.464 364.434 454.781 362.87L448.128 348.943L424.184 303.948C410.511 280.911 397.927 257.526 371.419 285.017C362.218 294.559 354.619 305.501 347.458 316.622L343.237 323.353C342.719 324.224 341.931 325.275 341.587 326.219L352.76 342.5C354.99 345.62 357.887 348.794 359.37 352.344C362.443 359.697 353.838 365.615 348.387 359.94C345.562 357 343.358 353.233 341.035 349.89C326.746 329.328 312.775 317.848 295.649 300.097C287.276 291.419 268.935 264.855 255.253 266.638ZM226.403 379.881L204.086 379.919C199.567 379.93 194.669 379.583 190.221 380.351L151.46 382.253C152.326 390.7 153.741 397.889 160.757 403.522C174.473 414.536 207.16 411.983 223.852 409.961C231.303 409.059 238.932 409.397 246.433 409.388L393.906 409.371L420.26 409.369C439.158 409.415 466.168 412.241 469.789 387.911C470.042 386.209 470.022 383.873 470.807 382.334L226.403 379.881Z"/>
	<path transform="scale(1.6 1.6)" d="M470.686 327.279C463.744 315.319 464.062 278.222 465.048 265.174C466.976 239.679 472.899 217.431 461.846 193.054C448.619 163.882 421.414 161.676 393.122 162.764C386.039 163.036 380.836 166.131 377.712 157.809C379.422 149.5 385.834 148.856 393.29 148.574L407.977 148.599C417.234 148.683 427.234 149.937 436.092 152.64C463.381 160.967 479.447 187.213 482.02 214.584C483.223 227.379 481.668 240.124 480.402 252.831L479.644 263.543C479.074 269.626 478.811 275.353 478.807 281.496L478.905 296.898C479.269 307.296 482.004 313.466 483.395 322.553C484.503 329.793 476.233 333.251 470.686 327.279Z"/>
	<path transform="scale(1.6 1.6)" d="M401.861 232.143C372.801 232.186 370.8 189.66 401.322 187.316C430.172 188.252 433.595 228.428 401.861 232.143ZM400.42 201.007C389.818 204.279 390.346 218.655 403.346 218.469C413.975 215.095 412.311 200.911 400.42 201.007Z"/>
	<path transform="scale(1.6 1.6)" d="M331.845 248.434C305.545 252.656 298.98 211.683 327.085 207.282C352.5 205.319 359.178 243.056 331.845 248.434ZM327.85 221.27C319.644 224.785 321.126 235.279 330.578 234.596C339.156 230.925 337.205 220.783 327.85 221.27Z"/>
</svg>
