<?xml version="1.0" encoding="utf-8" ?>
<svg xmlns="http://www.w3.org/2000/svg" xmlns:xlink="http://www.w3.org/1999/xlink" width="1024" height="1024">
	<path transform="scale(1.6 1.6)" d="M364.71 279.448L365.446 278.657C368.679 275.435 372.204 276.075 376.393 276.06L390.554 276.019L390.583 247.593C359.17 243.367 333.464 215.019 330.009 183.888C328.248 168.015 331.626 151.056 337.238 136.301C344.439 117.369 349.382 124.676 366.908 124.718L406.384 124.624C409.037 124.567 411.651 124.107 414.293 124.041L442.994 122.612C450.137 122.124 450.709 121.86 453.987 128.642C475.477 173.105 469.155 229.214 416.817 245.347C413.24 246.449 409.743 246.907 406.133 247.731L405.97 276.065L422.656 276.121C433.414 276.312 432.727 290.662 423.596 292.058C419.586 292.671 415.34 292.468 411.29 292.475L379.523 292.458C376.908 292.446 374.135 292.606 371.544 292.243L371.094 292.172C366.09 291.449 362.056 284.384 364.527 279.777L364.71 279.448ZM442.081 137.025C434.809 137.077 427.423 138.401 420.156 138.592L353.857 138.143C349.293 137.703 349.355 142.108 347.991 146.615C339.769 173.783 342.15 201.207 364.907 220.482C388.322 238.628 422.625 235.342 440.966 211.47C458.565 188.563 451.067 161.735 443.281 136.944C442.834 136.925 442.51 136.878 442.081 137.025Z"/>
	<path transform="scale(1.6 1.6)" d="M511.406 339.223L118.411 339.238C115.025 339.246 111.065 338.882 107.766 339.551L107.829 484.055C107.884 487.257 108.916 491.863 107.948 494.846L107.838 495.156C105.694 501.511 94.565 501.062 94.2166 490.453L94.0466 357.509C94.0408 351.927 93.511 345.856 94.367 340.352L94.4462 339.87C73.0761 336.637 66.1825 319.116 83.3522 305.521C92.2871 298.446 104.533 294.986 115.851 295.245C122.599 294.905 129.586 295.276 136.359 295.276L519.766 295.349C533.439 295.994 562.473 307.127 554.861 324.624C553.182 328.485 549.064 332.684 545.129 334.231C541.445 335.679 542.557 337.467 542.508 341.051L542.463 479.265C542.458 484.19 542.735 489.314 542.317 494.219C541.718 501.26 529.51 500.173 528.94 494.375C528.42 489.092 528.819 483.4 528.819 478.074L528.808 339.35C523.252 338.673 517.036 339.225 511.406 339.223ZM195.545 308.649L124.188 308.66C111.446 308.669 94.9457 309.533 87.1025 321.632C92.8727 327.145 100.876 325.609 108.257 325.607L434.607 325.598L523.978 325.614C530.514 325.614 538.675 327.415 542.18 320.457C537.955 315.068 531.024 311.687 524.55 309.864L523.605 309.552C519.436 308.025 513.186 308.668 508.75 308.662L195.545 308.649Z"/>
	<path transform="scale(1.6 1.6)" d="M323.45 502.557C320.503 501.968 317.378 502.306 314.42 502.437L303.324 502.695C298.842 502.77 289.983 502.63 290.029 495.879C290.11 483.778 311.518 495.862 311.534 474.781L311.498 453.018C311.378 424.52 290.154 415.983 279.104 393.359C273.309 381.494 275.412 374.395 287.319 369.703C295.754 366.38 305.081 364.914 314.113 364.964C324.494 364.969 353.47 365.787 359.039 376.988C366.115 391.222 342.972 412.967 335.427 423.631C325.267 437.991 325.443 447.043 325.41 463.488C325.401 468.387 324.3 476.739 326.716 481.214L326.907 481.562C329.926 487.443 334.972 488.802 341.049 489.632C347.431 490.503 350.4 495.894 345.898 500.469C342.786 503.633 337.957 502.905 333.941 502.774L323.45 502.557ZM310.073 383.363C306.965 383.556 293.711 384.751 291.664 387.077C297.513 398.936 307.818 410.613 318.463 418.478L322.003 415.404C330.398 407.474 339.671 397.254 344.043 386.534C333.823 382.713 320.959 382.726 310.073 383.363Z"/>
	<path transform="scale(1.6 1.6)" d="M206.927 502.624L183.884 502.819C178.139 503.117 165.491 502.846 170.127 492.969C172.36 488.213 179.761 489.723 183.923 487.935C192.392 484.296 190.968 473.212 190.921 465.859L190.821 451.487C190.603 440.591 187.285 433.775 180.976 424.816L167.033 406.947C144.092 377.527 158.203 367.742 188.303 365.129C201.146 364.315 231.645 365.249 238.165 376.985C245.482 390.155 222.192 412.781 215.089 422.756C203.634 438.84 204.8 447.345 204.806 466.25L204.853 475.021C204.89 477.429 204.744 479.834 206.024 481.969L206.334 482.461C212.955 493.18 219.784 486.506 224.18 490.814C227.296 493.868 227.355 498.044 223.972 500.901C219.821 504.406 211.991 502.992 206.927 502.624ZM188.753 383.48C182.937 383.941 176.297 384.3 170.904 386.668C176.646 399.4 186.839 409.903 197.258 418.96L202.007 414.782C210.453 406.486 218.184 397.179 223.806 386.708C212.472 382.788 200.556 383.384 188.753 383.48Z"/>
	<path transform="scale(1.6 1.6)" d="M450.045 502.622L425.611 502.714C422.325 502.835 417.434 503.601 414.45 502.089C411.576 500.633 409.173 496.472 410.84 493.373C415.955 483.858 431.492 496.36 431.561 473.06L431.572 463.288C431.568 456.976 432.241 449.699 430.902 443.53C427.085 425.953 411.605 413.432 402.361 398.719C386.1 372.839 408.382 367.132 429.29 365.131C440.743 364.715 473.914 364.867 480.394 377.17C487.416 390.501 461.607 414.97 454.342 425.446C444.436 439.729 445.885 447.561 445.852 463.955L445.849 474.331C445.891 494.606 460.614 486.602 465.696 490.763C468.716 493.235 469.422 497.183 466.511 499.955C462.372 503.896 455.296 502.715 450.045 502.622ZM428.948 383.471C422.965 384.052 417.396 385.087 411.653 386.794C419.061 399.313 427.802 409.449 438.326 419.308L444.175 413.825C451.302 406.716 461.649 396.101 465.275 386.444C454.819 383.283 440.114 382.605 428.948 383.471Z"/>
</svg>
