<?xml version="1.0" encoding="utf-8" ?>
<svg xmlns="http://www.w3.org/2000/svg" xmlns:xlink="http://www.w3.org/1999/xlink" width="1024" height="1024">
	<path transform="scale(1.6 1.6)" d="M222.298 440.133L205.255 448.118C191.131 453.519 164.859 449.62 152.371 440.599C149.586 438.587 150.191 438.192 146.854 438.95C142.753 439.881 135.41 441.94 131.406 439.972C127.99 438.294 128.368 433.033 130.093 430.325C132.772 426.122 138.242 424.3 142.853 423.276C142.241 420.781 140.578 418.107 139.446 415.787L89.785 313.386C88.8963 311.475 87.1433 307.725 87.99 305.673L88.1558 305.312C91.3206 297.861 98.381 300.658 104.33 302.15L145.312 310.178C146.381 305.689 146.558 300.802 147.31 296.226C152.148 266.807 162.421 230.719 190.902 216.172C172.549 203.145 167.71 177.654 177.835 158.019C197.786 119.326 254.304 124.861 266.621 165.619C275.014 193.394 258.21 218.939 231.272 226.818C244.603 249.535 264.092 264.3 291.406 252.361C295.908 250.394 299.878 247.634 304.26 245.492C313.914 240.773 310.089 244.434 315.689 235.063L370.287 142.051C376.439 132.221 405.761 86.043 416.718 83.519C421.429 83.8565 425.521 88.1176 423.687 93.1127C422.627 95.9994 419.058 99.148 417.066 101.577L405.747 115.813C387.168 140.098 371.808 166.699 356.716 193.233L325.743 248.083C335.441 255.903 339.951 267.451 335.132 279.507C330.698 290.598 319.825 296.569 309.174 300.496C298.754 304.338 301.176 301.376 295.221 310.924C293.91 313.024 290.235 320.576 289.501 321.414L571.609 321.854C587.361 321.381 577.503 342.259 574.235 350.114C560.373 383.438 527.172 419.526 498.586 439.825C493.51 443.429 488.388 447.603 482.576 449.944C452.614 462.011 433.256 423.166 391.225 441.379C373.708 448.97 368.146 454.014 346.543 450.899L328.781 447.537C324.248 446.766 319.146 447.696 314.744 446.531C312.2 445.858 308.184 442.304 305.798 443.045C300.538 444.679 295.938 448.451 290.767 450.538C262.969 461.753 248.561 429.349 222.298 440.133ZM217.984 146.676C175.252 151.861 178.178 213.335 223.652 212.467C268.649 206.663 258.996 143.399 217.984 146.676ZM202.366 229.79C174.28 233.525 161.235 286.716 160.888 312.564L217.362 319.66C219.591 313.542 221.134 307.113 222.826 300.827C224.439 294.838 226.278 283.415 235.345 286.547C237.564 287.313 239.402 289.302 241.442 290.45C246.988 293.57 254.3 295.085 260.551 295.858C277.431 296.35 284.099 294.248 300.094 287.931C307.87 284.859 321.533 280.626 321.634 270.234C321.69 264.545 318.691 260.485 313.359 258.874C307.093 260.328 302.382 264.123 296.581 266.632C271.025 277.688 244.918 270.349 228.292 248.904C220.425 238.757 216.745 229.122 202.366 229.79ZM236.845 305.482L233.205 320.372C239.269 321.596 245.734 321.179 251.899 321.208L273.108 320.903L276.238 314.824C276.952 313.468 277.093 312.455 278.225 311.319C269.94 310.345 261.67 312.188 253.326 310.107L236.845 305.482ZM109.273 318.775L118.869 336.584C121.975 337.319 125.186 337.516 128.355 337.84L268.12 350.38C270.047 350.552 271.953 350.97 273.906 351.095L286.23 351.461C289.682 351.616 293.092 352.165 296.562 352.256L377.57 352.228C380.187 352.129 382.741 351.484 385.377 351.399L404.027 351.189L553.598 342.606L562.234 342.151L563.766 337.262C557.447 336.35 550.724 336.735 544.349 336.723L270.938 336.649L222.334 335.157C195.228 333.88 168.579 329.79 141.875 324.967C131.002 323.003 120.229 320.255 109.273 318.775ZM125.449 352.722L145.809 395.276C151.194 405.948 157.142 417.839 165.524 426.503C174.889 436.182 190.457 437.972 202.554 432.937L216.504 426.39C248.551 412.606 259.423 439.356 282.731 436.786C291.861 435.779 299.134 429.125 307.977 427.383C320.765 424.863 334.423 433.511 346.807 435.924C380.697 442.526 394.779 408.049 441.75 426.979C463.039 435.559 468.225 443.605 488.28 428.542L504.502 415.747C524.334 398.363 539.415 380.006 553.452 357.864L462.812 363.545L417.969 365.367C415.541 365.496 413.182 366.067 410.73 366.164L386.786 366.326C382.636 366.449 378.578 367.29 374.428 367.417L299.005 367.434L273.276 366.057L161.875 356.48C149.794 355.451 137.414 354.652 125.449 352.722Z"/>
	<path transform="scale(1.6 1.6)" d="M534.577 464.066C518.041 463.801 509.637 472.978 495.047 477.989C480.303 483.052 463.61 482.767 449.062 477.162C432.813 470.901 419.44 458.703 401.095 468.422C397.047 470.567 393.354 473.329 389.282 475.457C348.591 496.729 323.968 452.585 296.841 472.575C290.219 477.454 288.294 478.75 279.956 478.471C272.255 478.214 265.797 476.353 259.322 472.187C241.31 460.599 233.859 463.73 217.063 473.339C200.036 483.081 180.291 484.718 162.478 475.456C147.501 467.668 134.62 456.332 116.812 469.877C110.255 474.864 102.357 481.811 98.9378 469.032C101.121 457.838 120.508 448.867 130.476 447.935C141.907 447.201 152.628 452.474 162.289 457.999C186.484 471.836 194.336 467.992 217.215 456.035C228.675 450.047 242.334 447.637 254.665 452.503C270.116 458.599 272.527 468.032 290.77 458.98C329.025 439.997 337.55 469.024 370.156 466.196C385.779 464.841 393.862 449.74 415.219 449.688C432.836 449.645 445.926 461.454 462.372 465.481C478.646 469.466 490.362 464.139 504.532 457.064C524.801 446.943 546.79 444.131 563.799 462.334C570.118 469.096 563.238 481.692 552.238 471.921C546.794 467.085 541.877 464.94 534.577 464.066Z"/>
</svg>
