<?xml version="1.0" encoding="utf-8" ?>
<svg xmlns="http://www.w3.org/2000/svg" xmlns:xlink="http://www.w3.org/1999/xlink" width="1024" height="1024">
	<path transform="scale(1.6 1.6)" d="M465.364 476.842L464.056 477.656C411.046 510.251 342.446 504.734 297.661 459.705C292.619 454.636 287.839 449.224 283.856 443.275L279.654 436.619C277.532 433.238 276.453 434.222 272.745 434.235L126.466 434.295C121.4 434.293 115.296 434.886 110.411 433.682C95.9257 430.111 85.0715 417.318 83.8565 402.477C83.4971 398.085 83.75 393.505 83.7536 389.096L83.767 193.97C83.7716 190.413 83.3549 186.211 84.2461 182.775C90.7141 157.84 114.717 162.438 134.412 162.421L198.958 162.397C203.521 162.374 205.46 162.914 207.419 158.099L207.593 157.656C209.001 154.144 208.622 149.689 208.759 145.943C210.155 107.704 246.598 88.8974 281.447 88.6876C314.86 87.5643 355.393 101.637 360.11 139.563C360.769 144.865 360.268 150.568 361.699 155.737L361.847 156.25C363.968 163.787 368.272 162.412 374.86 162.421L457.576 162.45C470.177 162.5 481.129 167.792 484.779 181.022C486.148 185.987 485.846 191.175 485.849 196.267L485.689 265.798C485.585 270.776 486.18 269.803 489.581 273.543L495.905 281.108C524.107 317.838 533.111 367.533 516.792 411.357C513.072 421.347 507.924 430.82 502.651 440.058L544.067 478.144C559.762 494.215 595.533 531.279 570.024 550.555C537.783 574.919 495.273 510.073 480.083 487.913L470.403 473.724L465.364 476.842ZM278.188 102.558C261.426 103.91 242.346 109.573 231.094 122.76C223.897 131.195 222.91 140.241 222.719 150.895C222.514 162.354 217.512 173.901 204.844 176.019L204.347 176.105C201.492 176.559 198.349 176.336 195.459 176.337L112.808 176.361C110.062 176.364 107.129 176.16 104.485 176.968L103.874 177.145C101.513 177.892 99.7095 179.762 98.7858 182.031L97.9981 184.807C97.3866 187.544 97.7881 191.037 98.2212 193.791C100.424 207.801 114.805 235.724 129.911 238.754C132.083 239.189 138.382 233.249 145.074 235.189C148.361 236.141 151.577 239.194 154.661 240.822C182.774 255.658 214.647 265.423 246.204 268.555L256.974 269.155C270.18 269.998 283.078 270.314 296.297 268.717C300.569 268.114 303.781 263.706 306.997 261.128C344.723 230.89 389.16 225.079 434.283 238.29C437.194 239.142 440.447 241.293 443.014 239.263C456.236 228.809 465.889 215.766 470.049 199.111C471.675 192.6 473.478 183.153 467.115 178.594L465.551 177.605C462.293 175.505 456.9 176.355 453.214 176.347L374.469 176.329C360.22 176.322 352.395 174.383 347.696 158.764C346.584 155.068 347.217 149.996 346.976 146.088C344.852 111.744 307.124 100.752 278.188 102.558ZM96.9792 226.094L97.4806 387.798C97.4812 392.7 97.0079 398.133 97.8003 402.954C100.01 416.402 108.779 420.386 120.569 420.427L258.587 420.43C262.282 420.429 266.11 420.622 269.791 420.372L263.047 398.465C254.461 364.071 259.29 327.673 277.67 297.092L285.415 283.865L257.2 283.608C230.858 282.127 203.608 276.541 179.1 266.853L144.359 250.96C142.182 249.824 142.416 249.418 140.142 250.228C122.519 256.503 109.708 244.18 100.008 230.749C99.2472 229.696 97.8905 226.756 96.9792 226.094ZM471.931 228.309C466.875 235.631 461.585 241.394 455.101 247.521L461.824 251.43L468.17 255.517C469.551 256.414 470.477 256.526 471.512 257.954L471.509 240.58C471.512 236.493 471.369 232.365 471.931 228.309ZM385.606 245.818C336.719 247.295 299.347 276.944 281.655 321.132C251.451 396.572 303.613 478.91 383.693 484.604C408.121 486.34 433.11 479.79 454.081 467.305L463.154 461.463C476.541 452.67 480.51 463.273 487.888 474.297L499.476 491.478C508.285 503.917 540.426 549.891 559.836 540.354C569.408 535.651 564.129 526.742 559.915 520.052C546.381 498.563 527.356 480.542 508.511 463.758L497.35 453.992C482.58 441.537 484.228 443.283 493.189 428.686C500.594 416.623 505.875 403.086 508.62 389.219L510.45 377.598C512.596 365.702 510.561 347.72 507.674 336.367C495.605 288.919 455.622 251.46 406.406 246.278L385.606 245.818Z"/>
	<path transform="scale(1.6 1.6)" d="M294.294 176.355C286.865 176.821 279.192 176.402 271.733 176.407L259.061 176.404C256.464 176.4 253.781 176.541 251.217 176.072C231.902 172.536 224.781 152.061 236.862 137.186C245.634 126.385 263.979 122.72 277.07 121.378C294.926 119.4 322.63 123.528 333.868 138.447C337.664 143.486 340.104 150.47 339.201 156.801L339.118 157.344C336.8 173.196 321.076 176.325 307.566 176.385L294.294 176.355ZM279.288 135.092C269.328 135.796 254.623 138.099 247.591 146.013C242.754 151.457 244.148 158.76 250.938 161.576L251.384 161.768C253.653 162.69 256.455 162.456 258.866 162.461L291.436 162.425L307.314 162.449C311.244 162.439 317.556 163.168 321.009 161.082L321.398 160.854C322.559 160.159 323.271 159.471 324.127 158.442L324.389 158.144C325.543 156.727 325.22 153.019 324.941 151.254C322.677 136.893 289.958 134.374 279.288 135.092Z"/>
	<path transform="scale(1.6 1.6)" d="M395.974 476.284C343.486 479.657 296.697 444.451 283.254 394.128C267.435 334.91 304.387 270.088 364.945 255.964C372.515 254.199 380.085 253.469 387.819 252.956C390.88 252.655 394.157 252.939 397.222 253.099C460.043 256.371 506.952 308.326 504.214 370.645C501.69 428.113 453.481 474.275 395.974 476.284ZM385.678 266.961C360.909 268.627 335.307 279.737 318.794 298.645C266.442 358.59 300.191 454.944 381.094 462.668C386.914 463.224 393.008 462.809 398.863 462.851C406.831 462.09 414.631 460.862 422.265 458.407C472.543 442.237 502.959 385.58 485.884 334.828C471.016 290.637 431.324 265.221 385.678 266.961Z"/>
	<path transform="scale(1.6 1.6)" d="M335.943 410.33C328.975 411.23 324.027 403.363 329.912 398.189C333.024 395.453 336.985 393.353 340.36 390.911C366.217 372.202 388.211 345.408 403.356 317.372C406.968 310.687 410.908 297.307 417.835 293.795C428.363 293.123 426.966 300.521 423.729 307.885L417.821 320.475C401.648 351.266 378.857 379.436 351.099 400.459C346.492 403.949 341.519 408.59 335.943 410.33Z"/>
	<path transform="scale(1.6 1.6)" d="M337.396 375.008C328.45 375.14 326.826 366.642 334.665 360.619L348.586 348.684C358.819 338.592 367.103 326.867 374.273 314.455L379.271 304.943C381.417 300.567 382.536 297.277 387.247 295.369C410.011 293.925 373.492 341.741 369.631 346.429C364.353 352.838 345.772 373.006 337.396 375.008Z"/>
</svg>
