<?xml version="1.0" encoding="utf-8" ?>
<svg xmlns="http://www.w3.org/2000/svg" xmlns:xlink="http://www.w3.org/1999/xlink" width="1024" height="1024">
	<path transform="scale(1.6 1.6)" d="M320.217 505.915L212.246 505.996C211.446 507.356 211.405 508.996 211.039 510.506C206.677 528.468 187.78 525.605 174.301 525.687L163.59 525.824C152.363 526.153 143.012 521.313 141.353 508.906C141.168 507.523 141.821 505.03 140.303 504.652C101.909 495.098 104.084 463.68 114.467 433.745C118.29 422.723 119.218 423.883 124.75 415.197C135.475 398.359 140.983 394.24 162.483 393.854C161.296 390.618 161.325 385.811 161.024 382.348L159.996 372.942C159.471 365.221 159.416 356.168 159.191 348.203L160.079 288.453L164.722 245.922C168.084 221.755 167.18 206.395 196.615 206.321L277.376 206.322L277.401 180.868C272.942 180.036 267.412 180.603 262.83 180.601L197.184 180.572C190.569 180.552 183.52 180.054 176.946 180.771C164.263 182.154 152.701 192.579 149.221 204.652C148.375 207.588 148.149 210.721 147.228 213.613C145.158 220.12 136.286 220.71 133.516 214.527L133.339 214.109C131.802 210.532 133.375 205.613 134.365 202.103C139.616 183.48 153.387 170.718 172.279 166.377C176.734 165.354 181.883 165.764 186.451 165.763L277.333 165.855C277.424 147.567 277.884 132.265 294.971 119.99C300.196 116.236 302.132 118.421 302.084 112.567L302.009 101.553C301.945 88.4839 305.699 78.2958 320.143 76.6729L320.745 76.6511C335.643 76.4398 338.581 90.9648 338.562 102.663L338.52 115.477C339.609 116.795 341.541 117.136 342.962 118.097C361.511 130.647 363.45 145.685 363.432 165.771L458.707 165.798C482.318 165.871 500.507 179.367 506.855 202.696C511.797 220.855 498.878 221.627 494.914 215.225C493.598 213.099 493.21 210.221 492.603 207.807C489.534 195.608 480.129 184.098 467.434 181.269C462.874 180.252 457.954 180.579 453.3 180.575L363.528 180.591L363.399 206.32L446.171 206.284C449.217 206.285 452.582 206.001 455.6 206.396C467.912 208.01 472.025 221.31 473.795 231.724L479.958 281.396L481.225 305.291L481.244 362.293C481.162 365.28 480.605 368.158 480.445 371.103L479.808 385.202C479.606 387.801 478.666 391.412 479.098 393.896C492.789 394.162 505.395 396.489 512.491 409.844C514.958 414.486 514.951 415.636 518.962 419.173C524.627 424.169 526.85 435.213 528.848 442.188C532.387 454.545 535.561 469.533 529.998 481.766C522.669 497.881 513.749 499.581 499.891 504.811C498.691 521.793 488.437 525.627 474.018 525.661L450.25 525.749C436.941 525.813 431.255 518.635 428.541 505.921L320.217 505.915ZM319.153 92.3438C316.371 93.9082 317.178 97.6932 317.167 100.472L317.166 111.886L322.409 111.917L323.828 100.854C323.834 98.014 324.964 92.0083 320.601 92.2007L319.153 92.3438ZM317.642 126.986C305.391 128.457 294.234 138.537 292.49 150.968C291.895 155.21 292.23 159.851 292.227 164.149L292.207 248.439L323.594 248.434L340.021 248.457C342.777 248.46 345.721 248.668 348.453 248.4L348.434 162.542C348.431 158.857 348.74 154.885 348.04 151.264C345.383 137.519 332.325 124.083 317.642 126.986ZM233.154 221.187L191.719 221.223C185.557 221.27 185.315 220.781 183.496 226.851C181.983 231.897 181.208 237.269 180.408 242.478L175.196 287.031L174.078 328.557C174.081 336.104 173.634 344.003 174.265 351.514L175.924 381.875C176.147 385.922 175.949 390.049 176.731 394.044L464.107 393.991C464.795 392.723 464.579 390.271 464.677 388.75L465.369 375.212C465.635 368.685 466.28 363.249 466.296 356.279L466.213 299.298C465.548 282.972 461.399 229.629 454.461 221.615C451.325 221.061 448.15 221.183 444.977 221.182L370.591 221.184C368.489 221.184 365.446 220.793 363.447 221.333L363.443 242.976C363.425 252.177 363.927 263.873 351.706 263.765L346.645 263.494C344.649 277.241 341.61 283.308 327.843 284.7L327.862 302.275C327.862 308.524 329.338 316.778 320.351 316.617C311.694 316.462 312.835 306.705 312.823 300.666L312.817 285.638C312.818 283.945 308.607 284.402 307.028 283.982C298.806 281.792 294.872 271.381 294.602 263.777C277.473 263.406 277.349 259.028 277.365 243.181L277.412 221.224L233.154 221.187ZM309.05 262.861C309.261 264.784 309.437 268.274 310.781 269.599C313.786 270.088 326.907 270.646 329.952 269.635L330.25 269.035L331.723 263.09L309.05 262.861ZM220.121 408.668L176.726 408.673C169.927 408.677 149.328 406.665 144.616 413.056L144.079 413.836C143.644 414.438 142.75 414.803 142.426 415.348L421.406 415.407L498.28 415.11C495.555 413.327 494.052 411.336 490.781 410L490.239 409.766C488.413 408.997 486.766 408.83 484.803 408.773L232.237 408.662C228.232 408.662 224.108 408.449 220.121 408.668ZM131.534 430.303C127.711 443.422 118.111 464.443 125.186 477.281C133.875 493.048 151.703 491.012 167.008 491.02L468.423 491.02C480.924 491.033 493.334 492.736 504.916 487.165C510.278 484.046 515.717 479.536 517.428 473.281C520.366 462.545 513.008 440.882 509.361 430.565L131.534 430.303ZM184.064 505.914L164.416 505.908C162.13 505.918 158.679 505.485 156.599 506.175C156.67 512.647 164.847 510.683 169.85 510.67C174.216 510.675 193.186 511.475 195.535 509.427C196.414 508.661 197.013 507.171 197.467 506.11C195.106 505.15 186.598 505.677 184.064 505.914ZM451.802 505.914C449.901 505.912 445.17 505.359 443.697 506.24C445.695 512.772 449.928 510.656 455.874 510.667L477.578 510.67C485.779 509.711 481.333 509.056 485.095 505.949L451.802 505.914Z"/>
	<path transform="scale(1.6 1.6)" d="M322.884 479.339C297.13 482.575 294.492 445.535 318.283 441.633C342.986 438.789 347.716 474.644 322.884 479.339ZM318.942 456.719C314.909 459.82 316.211 465.956 322.001 464.266C327.083 461.724 323.647 455.579 318.942 456.719Z"/>
</svg>
