<?xml version="1.0" encoding="utf-8" ?>
<svg xmlns="http://www.w3.org/2000/svg" xmlns:xlink="http://www.w3.org/1999/xlink" width="1024" height="1024">
	<path transform="scale(1.6 1.6)" d="M301.485 465.005L272.478 464.872C270.15 464.768 267.862 464.314 265.538 464.206L226.402 461.532C193.949 458.313 162.126 453.192 130.504 445.139C112.977 440.675 92.0845 437.12 83.8213 418.894C80.8978 412.445 81.019 388.348 82.8736 381.023C85.3055 371.417 93.6885 364.122 102.733 360.73C106.454 359.335 106.272 360.9 106.455 356.683C106.804 348.64 108.139 340.529 109.574 332.616C120.944 269.937 150.535 224.848 204.563 191.583C218.241 183.162 233.387 174.15 249.445 171.751L249.097 165.805C249.02 151.907 259.829 149.541 271.446 147.488C281.219 145.761 290.161 144.977 300.045 144.953C300.267 144.919 300.131 144.935 300.493 144.934L313.584 145.083C322.094 145.606 341.83 147.762 347.873 153.9C352.603 158.705 352.144 164.709 352.113 170.937C360.08 174.239 368.328 176.745 376.118 180.492C399.576 191.773 423.279 206.676 441.309 225.762C472.105 258.365 490.222 304.802 494.634 348.938C495.201 354.604 493.099 359.056 497.572 360.319C511.299 364.196 519.66 374.907 519.718 389.322L519.487 406.25C518.044 433.549 498.953 435.154 476.256 441.44L441.159 450.359L388.425 459.316L331.481 464.229C328.772 464.327 326.088 464.808 323.398 464.892L301.485 465.005ZM307.135 157.256L307.144 294.25C307.144 298.669 307.641 303.787 307.016 308.143C306.09 314.598 295.581 315.302 294.898 308.714C294.451 304.395 294.814 299.729 294.817 295.371L294.819 165.886C294.818 163.183 295.068 160.202 294.74 157.527C285.716 157.797 268.65 158.878 260.602 163.473C260.645 171.266 261.766 179.037 262.991 186.719C263.671 190.981 265.031 195.905 264.844 200.215C264.632 205.09 255.442 211.762 252.598 198.826C251.543 194.032 251.201 189.173 250.366 184.348L237.664 187.353C248.23 215.12 256.838 257.971 259.204 286.666C259.652 292.092 261.988 299.531 255.115 301.695C246.023 304.556 247.371 286.941 246.858 283.125C243.403 257.468 238.52 232.155 231.238 207.283L226.494 193.023C205.75 205.076 185.748 217.253 168.901 234.644C172.813 247.175 179.232 265.353 180.375 278.443C189.273 279.468 197.2 282.792 202.901 290.005C223.501 316.069 190.145 344.33 175.788 323.202C172.016 317.652 172.624 310.194 171.952 303.842L168.371 279.111C166.381 268.119 163.908 256.461 159.61 246.136C137.531 276.099 124.279 308.307 119.797 345.617L118.53 359.95C117.979 372.299 121.886 372.601 133.844 374.812L154.341 377.651C168.736 379.411 183.399 381.189 197.9 381.586L214.897 381.701C217.483 381.723 220.976 381.411 223.438 382.158C229.24 383.918 228.304 390.116 224.373 393.087L224.093 393.303C222.143 394.722 216.457 394.01 213.902 394.004L194.768 393.775L151.548 389.531C138.251 387.888 117.209 387.873 109.002 375.591L106.7 371.836C84.2334 380.601 95.3874 395.843 113.182 402.659C119.89 405.228 127.907 406.767 135.075 407.254C139.96 407.684 145.004 408.69 149.257 408.862L436.098 409.022C457.045 408.961 488.065 408.11 503.747 393.87C512.737 385.708 504.517 375.51 495.197 372.186C488.778 385.428 474.099 386.022 461.24 387.977L407.529 393.685L390.238 394.017C384.85 394.055 379.103 395.31 376.583 389.062C376.611 385.781 378.858 383.201 381.875 382.181L382.207 382.066C384.368 381.383 387.242 381.647 389.499 381.651L402.269 381.562L463.267 375.33C470.215 374.335 478.455 373.602 483.408 368.002C483.615 326.834 468.464 278.733 442.52 245.915C437.988 260.89 434.617 275.752 432.236 291.207L430.398 305.364C429.889 310.285 429.718 315.551 428.014 320.247C419.804 342.863 385.35 325.415 394.877 298.105C398.633 287.337 410.75 278.626 422.258 278.323L433.262 234.26C412.196 216.461 400.017 206.413 374.887 193.491C366.546 215.993 361.133 246.341 357.806 269.844L355.864 285.949C355.58 289.287 355.578 292.766 355.138 296.066C354.118 303.729 345.37 304.86 342.981 296.833C341.052 290.353 350.454 239.959 352.225 231.948L357.398 211.135C359.294 203.577 360.763 195.509 363.588 188.267L350.693 183.983C349.975 189.7 350.143 196.726 347.909 202.031C345.402 207.986 336.952 206.767 336.787 200.262C336.584 192.225 342.248 167.954 340.064 163.75C337.655 159.113 311.874 157.216 307.135 157.256ZM183.126 290.096C183.879 295.832 181.49 327.079 194.469 315.316C201.632 305.482 192.605 294.112 183.126 290.096ZM419.212 291.406C407.803 294.304 400.843 306.257 408.41 315.794C415.448 320.898 417.138 315.345 417.908 308.856L419.212 291.406ZM93.7316 405.207C94.0646 418.823 101.937 423.895 113.901 427.821L131.382 432.756C159.441 440.088 188.188 445.571 217.044 448.641L244.169 451.127C253.587 451.769 263.505 452.583 272.885 452.646L332.823 452.496C373.408 450.683 418.275 443.389 457.655 433.677C469.411 430.778 481.454 428.215 492.902 424.269C503.18 420.213 507.427 417.604 507.604 406.794C497.743 412.743 486.946 416.154 475.604 417.992L465.51 419.352C458.988 420.511 447.11 420.627 439.633 420.904L145.85 420.321C126.568 419.162 111.217 417.592 94.5411 405.784L93.7316 405.207Z"/>
	<path transform="scale(1.6 1.6)" d="M305.607 391.791C267.374 395.974 257.629 338.235 298.208 332.289C335.799 327.676 345.698 385.162 305.607 391.791ZM300.99 344.165C276.137 347.438 280.164 380.172 302.718 379.979C326.181 376.949 323.166 342.739 300.99 344.165Z"/>
</svg>
