<?xml version="1.0" encoding="utf-8" ?>
<svg xmlns="http://www.w3.org/2000/svg" xmlns:xlink="http://www.w3.org/1999/xlink" width="1024" height="1024">
	<path transform="scale(1.6 1.6)" d="M312.426 105.316C278.432 109.572 248.498 129.83 233.494 161.063C212.658 204.439 224.863 260.348 270.256 281.971C311.399 301.57 379.702 297.925 407.788 257.793C409.33 255.59 410.508 253.003 412.237 250.954C417.999 244.132 430.432 251.161 421.817 263.695C403.006 291.063 369.124 307.334 336.077 307.517L315.973 307.541C286.657 307.517 259.182 299.293 237.812 278.089C195.539 236.145 201.505 164.399 242.154 123.603C263.247 102.432 291.256 90.2835 321.059 90.2456L321.151 90.1962C349.192 90.3116 375.744 100.038 396.091 119.844C428.457 151.35 434.459 206.687 401.408 239.95C378.244 263.264 333.947 274.085 334.367 227.102L328.8 235.007C319.229 247.043 303.855 256.38 288.408 258.039C272.543 259.743 260.097 247.414 258.689 232.056L258.648 231.562C255.246 194.069 281.8 154.908 318.413 145.239C323.339 143.938 328.249 143.393 333.259 142.605L346.988 141.84C360.232 141.442 365.796 145.61 364.325 159.681L355.977 210.355C355.179 215.326 350.879 238.629 355.053 242.003C356.771 243.392 361.34 242.894 363.438 242.72C374.57 241.797 386.419 234.685 393.491 226.277C418.882 196.091 410.168 150.838 381.007 126.544C362.072 110.768 337.66 102.79 313.062 105.249L312.426 105.316ZM336.698 158.874C320.126 160.339 305.1 167.592 294.333 180.448C283.698 193.148 275.129 211.886 276.555 228.83C277.047 234.669 278.422 239.504 284.616 240.724C297.497 240.688 308.427 234.458 317.413 225.502C335.157 207.816 344.236 184.252 344.453 159.209C341.994 158.721 339.183 158.481 336.698 158.874Z"/>
	<path transform="scale(1.6 1.6)" d="M100.845 298.826L105.192 259.155C108.739 239.691 110.089 235.735 126.734 227.35L171.875 204.35C176.322 202.081 180.703 199.229 185.293 197.319C194.497 193.488 200.788 204.898 191.622 210.95C188.112 213.267 184.138 215.058 180.374 216.936L128.484 243.012L146.87 264.258C155.412 273.306 164.963 281.472 174.607 289.31L190.775 302.156C205.857 313.354 221.939 323.895 238.065 333.526L257.5 344.687C270.535 352.406 284.954 361.081 295.469 372.194C297.323 374.154 298.946 376.507 301.006 378.249C313.114 388.488 336.488 384.585 346.717 373.35C354.05 365.296 356.091 362.451 365.601 355.733L403.669 331.241C431.578 313.43 464.744 290.891 488.186 267.043C497.136 257.938 504.746 247.276 512.888 237.435C497.476 227.469 479.728 221.144 462.545 214.994C456.064 212.675 449.202 210.639 442.971 207.734C436.072 204.518 434.218 196.94 441.787 193.656L442.192 193.485C448.142 192.932 452.52 195.543 457.991 197.479L485.312 207.821C498.797 213.148 529.771 224.528 533.761 239.969L533.884 240.469C534.885 244.352 534.343 248.942 534.33 252.971L534.739 267.956L537.853 306.446C538.012 308.648 538.471 310.803 538.583 313.014L540.002 338.285L539.94 422.834C539.295 443.646 537.125 468.622 534.02 488.939C531.981 502.283 530.126 516.826 517.071 524.21C509.939 528.244 502.014 527.486 494.116 527.49L133.11 527.443C125.607 527.295 124.41 524.767 119.084 520.365C107.002 510.377 107.396 509.715 104.304 493.248L99.3254 458.694C98.4988 453.151 97.6411 442.398 97.3622 436.393L97.3885 352.983C97.5027 349.652 98.2667 346.406 98.3947 343.125L99.7689 318.413C100.064 311.855 99.8851 305.338 100.845 298.826ZM519.674 253.287C513.298 260.184 508.281 268.177 501.779 274.948C491.109 286.06 479.247 295.617 467.122 305.073L424.349 335.918L387.402 359.395C382.725 362.453 377.448 365.436 373.176 369.024C403.492 384.753 430.632 407.093 453.81 432.039L514.42 506.419C517.391 501.372 517.928 494.769 518.785 489.062L523.497 447.614L524.106 432.368C524.301 429.32 524.973 426.409 525.083 423.345L525.111 338.059C524.978 334.443 524.201 330.873 524.001 327.253L523.606 311.719L519.674 253.287ZM120.06 255.559C116.774 272.744 115.893 290.454 114.716 307.88L113.426 332.344C113.263 335.134 112.671 337.834 112.552 340.646L111.785 380.959L112.381 435.768C112.472 442.782 113.36 451.178 113.981 458.263C114.943 469.218 118.252 499.769 125.751 507.237L185.411 432.411C205.907 411.089 240.383 381.291 268.263 369.129L207.728 331.974L175.691 309.219C155.192 293.835 135.047 276.539 120.06 255.559ZM281.04 379.219C237.781 398.423 196.156 438.342 167.072 475.789L146.72 503.718C144.548 506.79 142.622 510.227 140.333 513.173L379.531 512.824L486.447 512.817C491.221 512.819 496.208 512.545 500.954 513.05L469.908 472.815C445.797 442.599 418.448 414.815 385.937 393.73L372.759 385.604C368.748 383.244 364.641 380.869 360.176 379.478C351.795 389.531 342.017 397.065 328.372 398.275C311.806 399.744 296.62 396.539 285.74 383.424C284.523 381.958 283.339 380.173 281.879 378.959L281.04 379.219Z"/>
</svg>
