<?xml version="1.0" encoding="utf-8" ?>
<svg xmlns="http://www.w3.org/2000/svg" xmlns:xlink="http://www.w3.org/1999/xlink" width="1024" height="1024">
	<path transform="scale(1.6 1.6)" d="M173.543 446.922C182.128 465.244 172.952 474.661 176.209 486.807C179.026 497.309 193.711 503.518 203.673 499.469C208.994 497.306 212.601 492.179 217.013 488.682C237.437 472.494 264.186 474.985 279.996 496.981C286.342 505.811 290.654 518.113 303.351 518.144C314.68 518.172 324.809 504.606 329.658 507.887C350.206 521.79 297.005 552.046 274.281 517.316C270.078 510.892 267.663 504.877 261.389 499.933C246.287 488.033 234.403 493.965 222.825 505.156C198.467 528.702 155.134 511.932 159.876 475.664C160.514 470.781 161.856 465.819 161.265 460.871C159.735 448.058 145.075 435.614 132.119 436.586C127.948 436.898 123.826 437.934 119.662 438.351C87.7163 441.547 66.4974 401.14 89.7741 377.22C99.3565 367.372 107.755 361.081 102.154 345.098C99.5223 337.585 96.1096 331.704 95.5442 323.533C94.5475 309.126 104.942 297.961 94.8211 284.451C85.8605 272.491 72.6593 269.692 71.0372 251.736C69.2498 231.95 81.9663 214.277 101.753 210.641C105.419 209.968 109.172 209.867 112.874 209.5C130.758 207.726 149.327 186.793 146.476 168.449C145.836 164.332 144.49 160.355 144.097 156.188C141.656 130.298 169.439 109.091 193.894 118.265C198.934 120.156 203.059 123.355 207.839 125.678C221.012 132.082 239.023 125.102 245.924 112.678C247.867 109.18 248.904 105.131 250.311 101.395C255.378 87.9462 266.751 79.808 281.166 78.568C296.342 77.8956 310.371 85.4416 316.384 99.9467C318.608 105.31 320.083 110.756 323.326 115.652C331.119 127.419 349.317 132.299 361.602 124.774C364.229 123.165 366.631 121.193 369.34 119.722C393.312 106.711 428.03 127.916 423.697 155.986C423.186 159.297 422.137 162.501 421.557 165.798C419.359 178.303 429.295 189.97 438.918 196.594C442.414 199 447.478 201.017 449.844 204.612C454.59 211.825 446.659 218.051 439.688 215.916C436.863 215.051 434.336 213.314 431.938 211.642C388.804 181.568 414.28 159.066 406.636 144.771C401.284 134.762 388.888 129.369 377.981 132.949C373.916 134.283 370.458 137.388 366.723 139.438C343.784 152.032 316.225 139.376 305.781 116.269C303.988 112.3 302.812 107.921 300.676 104.129C296.073 95.9555 286.359 92.7551 277.525 95.2572C264.837 98.8511 264.315 112.321 258.358 122.031C246.895 140.717 220.556 150.748 200.675 139.58C195.95 136.925 191.709 133.231 186.186 132.33C172.661 130.125 158.44 139.984 160.27 154.694C161.269 162.723 163.899 169.364 162.513 177.686C158.821 199.851 141.211 219.642 119.2 224.641C105.429 227.769 89.7819 224.633 86.721 244.886C83.4902 266.263 123.482 269.539 113.825 307.903C110.643 320.544 111.284 324.914 116.136 337.031C131.223 374.712 98.0512 382.816 95.9589 398.487L95.8877 399.062C94.8943 406.499 97.9281 412.721 103.368 417.555C111.936 425.169 121.306 422.213 131.524 421.35C149.5 419.831 165.504 431.133 173.543 446.922Z"/>
	<path transform="scale(1.6 1.6)" d="M424.111 422.36L404.816 454.184C401.238 459.998 397.957 466.075 393.639 471.39C387.821 478.551 367.542 498.797 359.102 503.642C351.844 507.81 340.595 507.83 334.093 502.314C322.495 492.474 327.985 474.354 330.627 461.787C333.84 446.497 335.736 439.765 343.885 426.73L490.806 183.813C493.541 179.339 496.039 174.464 499.064 170.2C501.194 167.199 504.356 165.155 506.534 162.229C514.736 151.21 515.667 145.128 532.705 143.887C546.27 144.219 563.201 153.554 567.339 167.056C570.251 176.559 566.073 184.883 561.68 193.166C581.354 206.466 577.426 221.96 567.473 238.611L534.679 294.346C529.214 302.987 512.673 296.508 523.584 280.876L544.192 246.194C548.887 238.268 554.445 230.393 558.273 222.021C561.466 215.039 558.858 212.038 553.092 207.701L424.111 422.36ZM530.438 159.744C525.318 161.302 522.876 165.665 519.962 169.807C526.978 175.704 536.102 179.994 544.002 184.682L547.37 186.832C549.138 183.196 553.58 175.933 552.005 171.86C549.236 164.701 537.977 159.389 530.438 159.744ZM509.3 183.243L362.656 426.942C353.887 441.546 350.715 443.947 347.125 460.98L343.939 476.808C339.791 500.983 354.111 487.76 362.579 479.751C378.385 464.986 382.773 460.363 393.767 441.875L538.985 200.537L509.3 183.243Z"/>
	<path transform="scale(1.6 1.6)" d="M188.693 377.499C209.58 407.203 242.914 424.639 279.393 424.711C287.428 424.727 295.289 424.363 303.08 422.183C308.039 420.795 313.292 417.685 318.011 421.416C321.085 423.847 322.814 429.182 319.945 432.432C312.129 441.286 274.92 441.208 262.812 439.687C208.244 432.832 164.632 389.741 153.789 336.255C137.832 257.547 194.423 178.7 276.834 174.773L295.938 175.173C347.401 180.931 384.293 211.748 405.47 257.218C408.057 262.775 411.412 268.552 405.104 272.877C395.848 279.222 391.514 264.741 388.918 259.459C368.444 217.804 327.537 189.025 279.915 190.735C196.727 193.721 142.378 281.997 177.855 358.75C180.888 365.312 184.674 371.503 188.693 377.499Z"/>
	<path transform="scale(1.6 1.6)" d="M285.076 363.301C280.825 363.604 276.587 363.753 272.344 363.245C208.043 355.54 207.378 259.323 274.023 251.374C278.126 251.172 282.426 250.976 286.515 251.387C350.186 257.787 353.601 354.575 285.076 363.301ZM276.133 267.311C243.731 270.548 228.497 308.213 249.18 333.741C254.812 340.692 264.436 346.497 273.438 347.405L283.694 347.467C294.951 345.812 304.256 341.366 311.239 332.035C333.01 302.944 309.357 262.707 276.133 267.311Z"/>
</svg>
