<?xml version="1.0" encoding="utf-8" ?>
<svg xmlns="http://www.w3.org/2000/svg" xmlns:xlink="http://www.w3.org/1999/xlink" width="1024" height="1024">
	<path transform="scale(1.6 1.6)" d="M328.906 483.438L216.383 483.451C215.108 484.589 214.613 486.493 213.796 488.006L202.289 512.571C200.231 517.382 198.44 523.084 192.408 523.609C182.366 524.484 172.65 522.239 169.858 511.391C169.046 508.238 169.576 503.608 169.563 500.306L169.213 482.045C166.481 480.65 163.609 479.948 160.822 478.396C131.623 462.138 118.777 422.369 118.272 390.28L118.226 369.031C118.212 364.684 118.615 359.246 117.368 355.081L117.242 354.688C114.237 344.971 106.014 338.936 99.6765 331.491C64.9959 290.747 122.004 228.734 165.212 275.588C183.205 295.101 191.404 320.754 199.09 345.588C201.197 345.664 209.313 343.029 211.45 341.961C211.273 295.958 204.497 282.972 183.754 244.492C163.208 206.378 149.869 162.757 198.607 138.892C208.184 134.202 218.108 130.686 228.515 128.347L237.903 126.594C244.676 125.556 247.293 124.344 252.932 120.494L261.238 115.289C277.27 106.215 294.736 100.925 313.023 99.192L323.465 98.9953C343.623 98.9771 363.278 105.902 380.657 115.724C385.832 118.649 390.857 123.11 396.372 125.201C401.254 127.053 407.166 127.047 412.294 128.179C441.949 134.729 475.182 150.517 475.323 185.177C475.481 224.083 447.503 253.423 435.637 288.625C429.64 306.417 429.58 323.418 429.506 341.877C430.663 342.799 438.697 345.123 441.076 346.278C448.198 318.743 463.338 281.277 487.277 265.796C529.359 238.582 574.849 296.579 537.054 335.781C527.848 345.33 522.599 349.687 522.522 363.291L522.492 375.521C522.427 413.167 515.467 462.854 476.239 479.767C474.633 480.46 473.029 480.647 471.511 481.6L471.37 508.402C470.866 519.731 459.604 524.591 449.541 523.897C443.957 523.512 442.312 519.9 440.205 515.293L428.346 489.091C427.548 487.345 427.235 483.823 424.962 483.632C420.846 483.286 416.604 483.443 412.471 483.441L328.906 483.438ZM317.669 114.508C297.757 115.374 281.56 121.952 264.369 131.405C248.886 139.919 251.222 139.469 233.906 143.292C218.169 146.767 199.573 152.31 188.418 164.591C166.134 189.122 196.369 234.135 208.091 256.785C217.988 275.908 225.157 296.991 226.436 318.599L227.23 338.14C233.032 336.769 239.385 336.253 245.309 335.519L273.032 333.3C275.065 333.169 277.055 332.717 279.098 332.628L324.141 332.511L359.63 332.576C371.11 332.961 408.492 335.412 413.972 338.059L414.087 320.369C415.271 297.854 422.174 276.05 432.673 256.186C444.949 232.96 475.211 187.376 450.86 162.965C439.766 151.844 421.717 146.143 406.635 143.029C387.756 139.13 391.859 140.3 375.083 130.545C357.308 120.209 340.467 114.381 320.015 114.438L317.669 114.508ZM128.271 274.786C116.139 276.6 106.857 285.694 105.327 298.109L105.17 299.352C102.36 321.554 124.858 329.501 131.134 348.496C136.068 363.43 132.728 380.332 133.881 395.859C135.352 415.671 141.491 437.836 154.277 453.216C165.014 466.13 172.597 467.856 187.931 467.898L457.753 467.864C463.947 467.784 469.367 466.852 474.804 463.633C499.851 448.802 506.89 409.614 507.15 383.109L507.173 367.365C507.19 348.852 510.934 340.187 523.99 326.964C531.302 319.353 535.903 313.21 535.692 302.188C535.396 286.735 524.342 274.147 508.564 274.665C479.544 275.618 461.58 328.885 454.757 354.245C467.149 368.313 465.372 391.758 451.388 404.098C443.267 411.266 432.172 410.129 422.143 410.142L213.891 410.149C201.655 410.141 194.112 410.906 185.433 400.132C176.566 389.123 174.829 372.577 181.722 360.143C182.202 359.277 185.944 354.463 185.973 354.289C186.303 352.296 177.663 329.306 176.467 326.2C169.476 308.042 152.715 271.146 128.271 274.786ZM293.345 347.866L266.866 348.856C249.849 350.006 206.733 354.012 195.912 367.154C189.487 374.958 195.137 393.843 203.12 394.773C208.685 395.422 214.631 395.057 220.241 395.064L347.782 395.069L426.17 395.047C432.092 395.034 437.551 396.156 442.036 391.654C446.318 387.355 447.931 381.216 447.864 375.302C447.739 364.223 437.26 360.529 428.236 357.766C412.516 352.953 392.945 349.804 376.301 348.753L293.345 347.866ZM184.952 483.445L184.999 501.318C185.023 506.19 185.436 513.351 189.528 503.882L190.945 500.426L198.863 483.515L184.952 483.445ZM442.991 483.438L449.064 497.812C450.508 501.531 450.74 508.095 454.844 506.838L455.329 506.094L456.021 489.871C456.031 487.902 456.342 485.347 455.92 483.446L442.991 483.438Z"/>
	<path transform="scale(1.6 1.6)" d="M269.972 217.983C238.52 220.966 234.82 176.629 264.274 171.973C293.648 169.315 300.888 213.13 269.972 217.983ZM266.153 187.826C255.996 191.186 257.594 203.122 268.417 202.568C277.731 199.843 276.413 187.218 266.153 187.826Z"/>
	<path transform="scale(1.6 1.6)" d="M375.077 218.313C349.375 222.557 337.94 177.289 371.586 171.969C399.251 168.888 408.402 213.658 375.077 218.313ZM373 187.563C362.558 190.865 363.371 202.535 374.73 202.656C384.23 199.785 382.549 186.717 373 187.563Z"/>
	<path transform="scale(1.6 1.6)" d="M269.897 306.79C237.289 309.966 234.926 264.896 264.168 260.41C290.776 255.928 302.305 300.562 269.897 306.79ZM265.761 276.029C255.763 278.14 257.269 292.138 268.088 291.003C278.239 287.131 275.71 276.876 265.761 276.029Z"/>
	<path transform="scale(1.6 1.6)" d="M376.854 306.456C364.827 307.585 354.756 301.752 351.598 289.604L351.193 287.959C348.58 274.865 358.749 262.81 371.315 260.381C400.358 257.024 407.793 302.218 376.854 306.456ZM372.622 276.335C362.602 278.868 364.554 290.67 375.253 291.153C384.637 288.426 383.229 276.371 372.622 276.335Z"/>
</svg>
