<?xml version="1.0" encoding="utf-8" ?>
<svg xmlns="http://www.w3.org/2000/svg" xmlns:xlink="http://www.w3.org/1999/xlink" width="1026" height="1026">
	<path transform="scale(1.60312 1.60312)" d="M353.612 538.75L223.636 538.753C218.006 538.75 211.754 539.232 206.227 538.127C179.125 532.71 157.989 513.215 152.112 485.971C150.208 477.143 150.702 468.273 150.692 459.29L150.497 326.118C149.07 327.185 147.766 327.554 146.166 328.281C131.76 334.826 113.751 338.617 100.137 328.226C85.0668 316.724 83.3071 294.892 94.9152 280.206C98.6153 275.525 103.406 271.547 107.837 267.579L286.921 111.478C295.755 103.904 303.284 96.1934 315.487 94.8078L315.63 94.7816C330.786 93.6876 339.878 102.723 350.554 111.996L389.881 147.136C393.001 139.22 396.27 132.493 402.707 126.689C417.861 113.024 440.431 113.233 454.234 128.797C468.269 144.624 468.116 171.836 467.152 191.933L466.271 210.918C466.304 216.723 468.843 216.203 473.704 220.469L516.747 257.48C524.731 264.375 533.491 271.22 540.435 279.171C565.063 307.371 533.826 352.691 490.469 328.14C489.311 327.484 487.627 326.907 486.834 325.844L486.394 465.888C486.395 471.207 486.823 477.115 485.873 482.352C480.98 509.312 461.631 532.567 433.906 537.791C428.34 538.84 422.9 538.749 417.267 538.752L353.612 538.75ZM318.497 109.819C308.699 110.479 302.25 117.939 295.281 124.019L177.779 225.692L117.241 279.329C108.889 286.881 99.414 294.065 102.715 307.031L102.866 307.637C106.094 320.318 120.253 321.602 130.87 318.355C143.292 314.556 151.763 303.097 161.618 295.189L212.624 254.98L303.177 174.924C318.255 161.861 317.511 160.926 331.591 173.264L341.427 181.638L425.98 256.56L487.841 307.257C492.198 310.818 496.716 314.443 501.738 317.017C524.57 328.717 544.86 306.249 528.281 287.86C521.344 280.165 512.518 273.743 504.642 267.031L457.582 226.585C451.365 221.245 451.139 220.307 451.348 212.244L452.292 177.254C452.304 162.971 451.48 143.758 438.127 134.94C422.949 124.917 408.458 137.861 404.232 152.891C402.559 158.844 406.341 166.315 399.765 170.272C395.793 172.662 393.034 170.576 390.091 167.944L334.946 118.255C329.729 113.582 325.781 110.057 318.497 109.819ZM318.127 181.828L220.898 267.714L166.719 310.616C163.386 313.441 164.9 321.432 164.899 325.585L164.873 471.528C164.917 498.751 186.478 522.552 213.937 523.997L257.181 524.088L257.186 383.394C257.191 366.571 256.726 349.725 278.302 345.01C282.502 344.093 287.804 344.676 292.107 344.673L319.219 344.681L344.997 344.686C349.452 344.692 354.926 344.1 359.268 345.142C378.595 349.781 379.493 363.852 379.413 379.476L379.345 515.599C379.346 518.114 378.906 521.66 379.475 524.068L408.201 524.091C413.955 524.093 420.087 524.492 425.8 523.925C451.298 521.395 470.814 498.43 471.453 473.349L471.511 312.503C470.926 311.837 470.467 311.425 469.663 311.042C465.887 309.24 462.241 305.365 459.016 302.691L410.262 262.926L318.127 181.828ZM285.811 359.621C268.471 360.069 272.173 372.358 272.169 384.93L272.176 524.076L352.031 524.078L364.596 524.048L364.609 385.739C364.619 374.148 368.247 359.327 351.574 359.479L300.632 359.619C298.405 359.614 286.699 359.199 285.811 359.621Z"/>
	<path transform="scale(1.60312 1.60312)" d="M322.24 304.255L322.18 304.266C275.943 308.981 266.459 238.499 314.291 232.3L314.615 232.25C323.666 231.209 332.503 233.802 339.711 239.293C365.112 258.643 355.092 300.322 322.24 304.255ZM318.281 246.679C288.417 249.435 291.341 289.111 318.659 289.496C346.665 287.013 345.819 247.592 318.281 246.679Z"/>
	<path transform="scale(1.60312 1.60312)" d="M298.513 445.589C281.954 446.457 280.928 423.372 296.952 420.707C313.681 419.56 313.725 442.413 298.513 445.589Z"/>
</svg>
