<?xml version="1.0" encoding="utf-8" ?>
<svg xmlns="http://www.w3.org/2000/svg" xmlns:xlink="http://www.w3.org/1999/xlink" width="1024" height="1024">
	<path transform="scale(1.6 1.6)" d="M469.102 517.631C459.887 534.142 437.863 531.153 421.88 530.655L319.712 531.18C316.598 531.226 313.55 531.713 310.469 531.808L219.129 532.571C216.061 532.633 213.1 533.328 210.073 533.44L158.095 533.451C138.354 532.742 124.024 528.223 123.998 506.486L124.227 470.651C122.345 469.394 119.281 469.262 117.086 468.128C105.674 462.237 105.486 452.104 105.766 441.314L106.686 384.023C106.744 379.391 107.451 374.897 107.466 370.26L107.501 169.289C107.542 168.325 107.7 167.454 108.166 166.602L108.367 166.25C111.981 159.712 119.09 159.7 125.738 159.408C126.557 150.564 125.799 141.19 131.057 133.388C139.394 121.016 158.349 120.36 171.853 120.353L265.153 120.303L310.032 119.554C312.858 119.455 315.629 118.781 318.438 118.729L366.34 118.595L421.354 117.53L433.321 117.472C437.242 117.403 441.813 116.837 445.67 117.388C454.281 118.618 462.482 126.47 465.451 134.309C467.76 140.403 467.817 146.283 467.828 152.722L467.812 224.427C468.624 221.908 470.733 219.563 472.22 217.369L476.76 211.175C483.615 202.07 490.853 192.768 498.604 184.408C502.403 180.31 507.276 177.407 511.328 173.539C520.601 164.688 532.894 151.543 547.021 157.605C561.528 163.829 558.63 174.962 553.308 186.335L546.72 199.557C560.978 215.17 546.496 244.05 537.517 258.566L501.156 311.112C498.998 314.089 496.907 317.226 494.426 319.94C487.512 327.504 478.807 320.697 481.521 314.382C483.158 310.571 486.313 307.025 488.773 303.687L519.785 260.081C529.677 245.021 541.045 230.381 538.163 211.592C533.983 216.972 530.46 223.256 526.83 229.032L473.67 307.682C470.243 312.904 470.848 314.439 470.833 320.704L471.551 493.536C471.557 501.809 472.285 509.793 469.102 517.631ZM412.055 131.063L387.274 131.168C382.284 131.343 377.314 132.274 372.301 132.391L319.908 132.507C317.137 132.538 314.376 133.31 311.553 133.387L177.808 134.01C167.638 134.012 151.776 132.414 143.942 140.074C139.333 144.579 139.2 160.053 140.226 166.437C142.202 166.336 144.29 166.349 146.232 165.978C147.832 161.019 149.746 155.591 154.844 153.22C166.601 147.751 179.422 157.156 180.979 169.219L181.056 169.789C183.26 187.83 162.264 201.659 147.52 184.093C145.249 181.387 143.801 181.584 140.236 181.546L140.093 239.309L146.97 238.41C156.923 204.705 187.484 230.582 180.332 250.282C175.5 263.592 160.629 266.985 150.434 258.006C147.143 255.107 146.727 252.401 140.642 255.341L140.422 306.754C142.643 306.427 144.943 306.513 147.184 306.511C149.913 287.91 169.486 285.45 179.14 301.406C187.885 315.86 174.065 336.245 157.075 330.972C153.888 329.983 150.083 327.65 148.564 324.507L147.677 322.313C146.725 322.202 140.905 321.373 140.218 321.722L139.981 376.39L147.576 376.481C150.871 365.991 156.991 359.992 169.219 364.223C194.001 372.798 179.483 411.575 157.539 402.676C153.49 401.033 150.029 396.373 148.281 392.497C145.457 392.346 142.614 392.431 139.965 391.131L139.822 456.996L146.121 457.028C147.36 452.158 148.36 448.041 153.067 445.3C163.774 439.065 178.811 447.878 180.352 460.781L180.428 461.385C182.407 477.878 163.521 491.439 151.65 481.125C147.652 477.651 145.178 470.31 138.773 471.525L138.125 495.938C138.108 511.382 134.206 515.975 150.004 518.663C163.965 520.931 194.281 520.611 209.508 519.723C212.5 519.548 215.294 518.67 218.381 518.619L321.406 518.09C324.067 517.942 326.668 517.539 329.346 517.492L435.026 517.424C455.018 517.474 457.828 517.389 457.825 494.649L457.762 477.675C457.689 475.339 457.244 473.037 457.142 470.704L456.9 328.878C456.28 330.625 455.102 331.544 454.133 333.066L398.504 420.172C389.753 432.86 380.301 444.692 370.187 456.305C363.78 463.662 360.488 470.683 349.664 467.779C343.339 466.083 340.449 488.569 328.906 485.68L328.529 485.589C324.94 484.647 322.408 481.383 323.435 477.643C324.624 473.314 329.513 470.459 331.991 466.846C334.323 463.446 335.834 459.511 337.419 455.729C333.009 453.418 326.841 449.707 325.145 444.705C320.271 430.329 340.623 405.816 347.621 394.449L377.939 344.601L402.964 308.215L443.564 253.76C447.673 248.394 453.708 243.974 453.858 238.048L453.986 154.262C453.962 144.016 453.878 131.07 440.265 131.03L412.055 131.063ZM159.81 166.094C155.283 169.324 158.224 179.587 164.92 176.925L165.156 176.803C169.861 172.807 166.1 164.704 159.81 166.094ZM538.362 170.347C532.21 172.554 527.608 177.026 523.228 181.757L523.582 181.903C526.466 183.122 529.03 184.979 531.554 186.806L535.164 189.972C537.485 186.344 550.17 169.666 538.362 170.347ZM121.592 172.969C120.876 175.942 121.077 179.108 121.073 182.106L121.014 366.193C120.986 369.917 120.246 373.509 120.173 377.235L120.04 424.922C119.645 433.426 115.367 451.39 124.219 455.721L125.324 367.214L125.995 175.453C125.91 172.228 124.505 172.708 121.592 172.969ZM511.93 191.15C505.568 197.575 499.904 204.592 494.253 211.637L451.728 265.918L392.214 348.194L349.524 417.594C347.003 421.574 344.432 425.539 342.193 429.688C334.553 443.841 346.761 444.76 355.515 451.088L364.789 440.502C381.917 420.946 395.431 399.247 409.281 377.293L441.415 327.374L471.708 285.566L527.854 201.57C522.755 198.192 517.49 193.608 511.93 191.15ZM161.308 236.719C157.582 240.676 158.241 249.196 163.555 248.356L164.531 248.133C169.57 245.009 166.354 234.774 161.308 236.719ZM159.248 305.469C155.289 308.405 158.029 316.106 162.5 316.535L164.844 316.539C170.279 313.199 165.306 304.251 159.248 305.469ZM160.362 377.656C156.802 381.714 160.811 390.837 166.7 387.846C170.507 383.268 167.35 376.422 161.036 377.469L160.362 377.656ZM159.097 457.344C154.796 461.435 157.526 471.68 164.91 468.612C169.16 464.315 166.008 456.796 159.802 457.231L159.097 457.344Z"/>
</svg>
