<?xml version="1.0" encoding="utf-8" ?>
<svg xmlns="http://www.w3.org/2000/svg" xmlns:xlink="http://www.w3.org/1999/xlink" width="1024" height="1024">
	<path transform="scale(1.6 1.6)" d="M423.702 491.503C382.234 522.223 341.772 536.076 290.832 536.085L258.533 534.351C238.492 531.992 194.358 522.582 178.125 508.776C159.683 493.093 166.803 465.772 184.901 452.898C185.906 452.183 187.152 451.54 187.956 450.607L182.335 430.93C173.682 433.926 165.243 438.123 156.959 442.006C149.44 445.53 146.246 448.557 137.783 446.75L88.2781 434.377C77.9047 431.753 70.9517 424.211 81.8409 417.937C85.4888 415.835 89.7771 414.302 93.6828 412.677L205.481 366.622C218.528 362.015 220.266 362.027 233.839 365.781C237.03 366.664 242.554 364 246.358 364.248C250.434 364.514 254.742 367.082 258.842 368.024C268.182 370.169 291.503 369.452 285.517 384.475C283.173 390.357 272.658 392.505 267.417 394.506L196.281 424.396L203.601 447.102C212.102 447.354 220.665 449.442 229.045 450.826L246.191 453.003C256.423 454.14 272.696 454.985 282.97 453.328L300.3 450.362C302.795 449.703 309.338 448.237 311.268 446.485C311.287 446.467 316.809 419.028 317.431 416.242C322.753 392.374 332.906 370.298 345.294 349.298L356.538 331.493C348.43 332.813 338.572 334.619 331.448 329.597C317.175 319.534 299.959 279.129 293.81 263.493C286.337 244.488 280.499 225.667 277.049 205.527L275.875 197.335C273.411 183.585 276.201 152.912 284.422 143.36C290.182 136.665 300.776 136.951 308.846 136.26C324.353 105.776 347.139 82.5544 382.94 79.1881C406.548 76.8806 434.73 86.5304 453.376 101.505C469.451 114.414 480.611 133.117 486.678 152.624C497.759 188.249 492.251 200.363 473.116 232.781L467.955 240.935C464.586 245.867 462.49 248.404 462.653 254.573C463.368 281.517 478.141 307.164 493.951 328.129L504.534 341.73C521.253 365.285 522.067 386.59 522.07 413.618L522.076 491.818C522.078 498.973 522.377 506.28 521.987 513.414C521.449 523.264 508.314 524.536 506.315 515.781C505.739 513.26 506.094 510.019 506.092 507.434L506.094 402.362C506.057 376.606 497.865 341.84 467.54 337.961C438.535 334.251 418.245 354.009 401.871 375.073L378.477 408.146C360.552 435.11 354.443 446.073 324.629 458.754C295.389 471.19 264.127 471.499 232.939 467.365L209.852 463.687C196.702 462.131 184.745 467.86 183.488 482.15C182.366 494.899 189.138 498.21 199.721 502.974C220.352 512.262 243.814 517.017 266.25 519.183L272.733 520.012C282.941 520.821 298.333 520.791 308.549 520.006L317.812 518.827C359.307 513.543 399.357 495.582 428.975 465.625C432.128 462.436 437.446 454.642 442.656 455.353C447.316 455.989 450.719 460.075 450.01 464.807C449.052 471.196 428.625 487.667 423.702 491.503ZM381.947 95.3875C364.159 97.454 350.036 105.785 338.791 119.924L331.29 130.251C330.085 132.026 329.081 134.651 327.439 135.908C337.339 135.906 345.415 135.597 355.102 135.136L370.097 135.021C389.853 135.009 409.03 140.496 418.25 160.351C423.593 159.853 429.349 159.131 434.688 159.931L435.277 160.016C444.167 161.382 453.045 167.61 458.234 174.802C475.121 198.209 455.279 235.128 423.775 229.373C391.4 223.458 385.298 184.811 411.847 164.298C399.171 151.972 393.385 150.227 376.817 150.189L355.156 150.283C351.545 150.329 348.039 151.186 344.395 151.234L320.469 151.348C314.036 151.55 302.376 151.666 296.836 152.497C293.879 158.34 292.993 165.068 292.087 171.485L332.996 171.28C341.414 171.265 352.605 169.279 360.325 173.134C372.93 180.273 374.709 193.533 376.878 206.401C382.408 239.204 382.961 256.844 348.242 268.342L316.517 276.8C320.282 285.83 334.008 311.463 342.169 317.812C349.633 317.871 356.367 315.585 363.243 312.846C408.601 294.777 451.747 246.863 470.983 202.742C477.996 186.656 477.941 179.124 473.177 162.077C462.062 122.302 431.143 95.2002 388.616 95.2099L381.947 95.3875ZM428.733 176.05C402.848 179.059 406.557 214.514 431.962 214.048C456.014 210.076 453.007 174.647 428.733 176.05ZM323.717 187.395L297.201 187.427C296.134 187.428 291.579 187.097 290.916 187.649C292.492 213.056 300.747 238.331 310.107 261.829L327.459 257.568L340.694 253.87C364.877 246.87 365.49 240.004 362.461 216.554C361.597 209.867 360.724 191.621 354.039 187.836C351.793 186.564 345.926 187.301 343.197 187.328L323.717 187.395ZM448.299 267.693C433.68 284.941 416.009 301.459 396.613 313.342C389.248 317.855 387.52 318.185 382.039 325.064L374.199 335.243C353.043 363.541 332.619 402.909 329.64 438.934C334.815 436.485 339.815 432.685 343.786 428.574C352.74 419.077 359.524 407.74 366.723 396.911L379.973 377.869C401.8 346.914 428.726 315.796 470.99 322.569C459.383 305.977 451.423 287.751 448.299 267.693ZM220.452 379.11C214.064 380.531 207.95 383.113 201.833 385.412L109.189 423.378L139.686 431.005C140.437 431.173 140.606 431.291 141.348 431.024L246.805 385.52C248.723 384.727 250.938 383.947 252.652 382.773C247.092 382.267 241.377 383.001 235.876 382.361C231.577 381.861 224.188 378.689 220.452 379.11Z"/>
</svg>
