<?xml version="1.0" encoding="utf-8" ?>
<svg xmlns="http://www.w3.org/2000/svg" xmlns:xlink="http://www.w3.org/1999/xlink" width="1024" height="1024">
	<path transform="scale(1.6 1.6)" d="M515.155 464.648L435.913 478.47C416.252 481.641 395.066 488.019 376.005 481.174L307.182 460.194C292.164 455.761 275.693 452.015 282.445 432.059C282.838 430.897 284.177 428.889 284.282 427.834C284.296 427.697 276.582 416.452 275.868 415.277C255.133 381.114 275.503 362.066 273.534 353.944C272.253 348.659 251.017 351.769 247.421 353.052C255.113 368.468 258.837 377.438 254.706 394.375C251.521 407.434 245.699 418.442 239.574 430.22C240.111 435.615 261.996 448.491 265.513 457.416C268.128 464.053 278.449 456.302 284.652 461.621C289.609 465.872 288.275 473.015 282.031 474.623C278.65 475.493 274.48 475.151 270.981 475.193L260.721 475.658C254.37 476.013 248.055 475.451 241.719 475.255L223.042 474.95C220.663 474.802 218.346 474.296 215.976 474.099L182.03 471.115L145.671 465.416C132.049 462.881 117.877 460.105 104.962 454.969C86.5257 447.639 81.6872 437.397 88.4482 419.531C95.6894 400.396 112.635 375.719 131.474 365.936C146.471 358.147 163.585 356.485 179.155 350.379C185.102 348.047 191.116 345.236 196.729 342.182C200.82 339.955 204.96 336.379 209.844 336.331C218.562 336.244 218.82 348.604 220.773 354.381C224.232 364.615 232.472 365.721 231.455 357.873L231.142 355.051C230.723 350.343 232.992 347.269 235.839 343.853C233.346 342.325 230.61 341.249 228.119 339.693C203.471 324.304 187.784 300.002 180.35 272.281C179.29 268.329 178.64 264.236 177.433 260.334C175.623 254.485 172.278 249.252 170.305 243.428C165.553 229.4 164.773 214.57 164.859 199.9C165.19 143.346 210.888 100.232 267.748 100.627C273.65 100.627 280.145 100.227 285.949 101.239L291.699 102.113C312.89 105.742 333.723 115.329 346.37 133.38C365.834 161.161 360.293 216.431 348.908 246.585C347.464 250.41 345.342 254.041 344.099 257.92L339.59 274.26C332.04 298.016 320.588 318.357 300.308 333.805C296.204 336.932 291.727 339.238 287.508 342.155C288.882 346.197 291.905 349.426 291.335 353.835L290.336 361.406C290.79 362.429 290.972 362.486 291.875 363.07C299.755 362.235 301.897 351.08 304.442 345.122C310.48 330.983 317.569 337.061 327.882 342.808C332.682 345.483 337.8 347.706 342.916 349.703L367.356 358.184C371.291 359.477 375.547 360.536 379.322 362.213C387.262 365.741 386.658 374.392 378.692 376.48C370.728 378.568 329.536 360.608 317.512 353.609C316.884 354.494 316.693 355.926 316.38 356.989C313.564 366.527 306.119 374.244 296.55 377.229C291.256 378.88 287.452 377.059 282.8 374.639C278.04 384.211 285.593 403.277 290.637 411.311L296.623 419.892L348.546 410.954C354.018 410.181 366.188 406.614 370.73 411.008C378.593 418.618 368.812 423.285 361.136 424.288L323.873 429.913C317.432 430.982 310.982 431.93 304.627 433.459C293.142 436.222 294.29 442.341 306.719 440.931L386.223 429.955L396.532 379.321C398.66 368.204 400.38 356.717 403.741 345.898C409.134 328.539 419.51 324.341 435.938 323.4L467.607 321.396C478.054 321.06 489.221 320.554 499.633 319.786L536.231 317.539C541.433 317.278 546.835 316.603 552.031 316.862C564.271 317.469 569.127 329.86 567.628 340.634C566.834 346.339 565.292 352.11 564.03 357.729L549.829 423.768C544.195 448.304 542.5 457.812 515.155 464.648ZM264.554 115.351C257.844 115.888 251.274 116.44 244.688 117.915C209.252 125.851 183.831 156.445 179.976 192.096C178.495 205.799 179.488 221.31 183.685 234.48C185.718 240.858 188.71 246.842 190.633 253.281L195.001 270.304C201.655 292.399 213.051 311.347 232.48 324.39C278.491 355.279 317.469 304.479 327.419 262.965C328.703 257.609 327.695 251.935 328.553 246.557C329.84 238.48 333.694 241.418 332.207 229.758C330.828 218.948 327.779 208.208 321.895 198.951L317.211 192.72C303.581 178.745 293.095 180.582 279.614 192.421C261.328 208.482 247.376 216.111 222.385 214.868C216.572 214.579 210.245 212.698 205.545 217.354C202.083 220.785 200.311 226.531 194.512 226.561C184.158 226.615 188.702 211.267 196.041 205.434C214.82 190.507 236.704 213.415 268.803 182.053C280.236 170.883 283.404 166.127 302.579 168.39C313.635 169.694 323.794 175.938 330.584 184.66C336.429 192.168 338.664 201.072 343.057 209.282C345.792 187.496 345.938 157.227 332.233 139.412C317.337 120.047 288.055 113.406 264.554 115.351ZM543.228 332.055L525.156 332.709C522.761 332.86 520.372 333.389 517.969 333.522L502.656 334.055L435.781 338.38C425.288 339.08 420.994 339.471 417.841 350.314C416.378 355.344 415.532 360.644 414.515 365.784L393.28 469.825L402.258 468.92L498.173 452.725C512.916 449.893 527.332 450.673 532.028 434.531L542.754 386.497C546.102 371.012 550.339 355.361 552.572 339.685C553.893 330.412 551.8 331.496 543.228 332.055ZM204.743 354.494C192.319 362.448 177.648 366.923 163.552 370.948C153.616 373.786 142.792 375.868 134.147 381.794C121.155 390.699 103.749 415.138 100.495 430.686C100.189 432.148 99.9969 433.902 100.845 435.213C106.695 444.266 150.153 451.18 162.256 453.242L172.738 454.898L213.594 459.142C215.547 459.282 217.463 459.758 219.425 459.869L235.331 460.003C239.652 460.022 244.55 460.482 248.804 459.983L248.245 459.688C247.347 459.186 230.354 443.197 229.736 442.495C219.169 430.499 228.046 420.793 233.832 408.873C238.372 399.518 245.144 383.236 239.986 372.846C235.813 375.917 232.312 379.327 226.68 378.381C212.981 376.081 209.606 364.524 204.743 354.494ZM382.527 445.469L332.002 451.213L343.986 454.82L378.228 465.133L381.85 451.259C382.3 449.41 382.949 447.525 383.172 445.64L382.527 445.469Z"/>
	<path transform="scale(1.6 1.6)" d="M475.774 411.205C458.476 409.874 462.318 386.013 477.803 383.844C485.832 384.301 491.51 392.545 488.631 400.342L488.458 400.781C486.298 406.373 481.849 410.367 475.774 411.205Z"/>
</svg>
